<svg id="Icon_ionic-ios-notifications-outline" data-name="Icon ionic-ios-notifications-outline" xmlns="http://www.w3.org/2000/svg" width="18.25" height="22.842" viewBox="0 0 18.25 22.842">
  <path id="Path_809" data-name="Path 809" d="M19.3,28.336a.739.739,0,0,0-.725.582,1.431,1.431,0,0,1-.285.622,1.079,1.079,0,0,1-.919.337,1.1,1.1,0,0,1-.919-.337,1.431,1.431,0,0,1-.285-.622.739.739,0,0,0-.725-.582h0a.744.744,0,0,0-.725.908,2.551,2.551,0,0,0,2.655,2.118,2.546,2.546,0,0,0,2.655-2.118.747.747,0,0,0-.725-.908Z" transform="translate(-8.265 -8.52)" fill="#fff"/>
  <path id="Path_810" data-name="Path 810" d="M24.8,20.847c-.879-1.159-2.609-1.838-2.609-7.028,0-5.327-2.352-7.468-4.544-7.981-.206-.051-.354-.12-.354-.337V5.335a1.4,1.4,0,0,0-1.37-1.4h-.034a1.4,1.4,0,0,0-1.37,1.4V5.5c0,.211-.148.285-.354.337-2.2.52-4.544,2.655-4.544,7.981,0,5.19-1.73,5.863-2.609,7.028a1.133,1.133,0,0,0,.908,1.816H23.9A1.134,1.134,0,0,0,24.8,20.847Zm-2.227.331H9.255a.25.25,0,0,1-.188-.417,6.916,6.916,0,0,0,1.2-1.907,12.938,12.938,0,0,0,.816-5.035,8.755,8.755,0,0,1,1.193-4.956,3.663,3.663,0,0,1,2.209-1.576,2,2,0,0,0,1.062-.6.451.451,0,0,1,.679-.011,2.068,2.068,0,0,0,1.073.611,3.663,3.663,0,0,1,2.209,1.576A8.755,8.755,0,0,1,20.7,13.819a12.938,12.938,0,0,0,.816,5.035,7,7,0,0,0,1.227,1.935A.236.236,0,0,1,22.569,21.178Z" transform="translate(-6.775 -3.93)" fill="#fff"/>
</svg>
