<svg id="Icon_ionic-ios-sunny" data-name="Icon ionic-ios-sunny" xmlns="http://www.w3.org/2000/svg" width="50.959" height="50.959" viewBox="0 0 50.959 50.959">
  <g id="Group_2044" data-name="Group 2044">
    <path id="Path_866" data-name="Path 866" d="M18.8,27.211A1.887,1.887,0,0,0,16.917,29.1v5.659a1.886,1.886,0,0,0,3.773,0V29.1A1.887,1.887,0,0,0,18.8,27.211Z" transform="translate(6.676 14.316)" fill="rgba(255,212,82,0.75)"/>
    <path id="Path_867" data-name="Path 867" d="M18.8,3.375a1.887,1.887,0,0,0-1.886,1.886v5.659a1.886,1.886,0,1,0,3.773,0V5.261A1.887,1.887,0,0,0,18.8,3.375Z" transform="translate(6.676 -3.375)" fill="rgba(255,212,82,0.75)"/>
    <path id="Path_868" data-name="Path 868" d="M12.807,18.8a1.887,1.887,0,0,0-1.886-1.886H5.261a1.886,1.886,0,1,0,0,3.773h5.659A1.887,1.887,0,0,0,12.807,18.8Z" transform="translate(-3.375 6.676)" fill="rgba(255,212,82,0.75)"/>
    <path id="Path_869" data-name="Path 869" d="M34.757,16.917H29.1a1.886,1.886,0,0,0,0,3.773h5.659a1.886,1.886,0,0,0,0-3.773Z" transform="translate(14.316 6.676)" fill="rgba(255,212,82,0.75)"/>
    <path id="Path_870" data-name="Path 870" d="M13.233,24.195a1.881,1.881,0,0,0-1.335.551L7.892,28.751a1.888,1.888,0,0,0,2.67,2.67l4.006-4.006a1.886,1.886,0,0,0-1.335-3.222Z" transform="translate(-0.432 12.077)" fill="rgba(255,212,82,0.75)"/>
    <path id="Path_871" data-name="Path 871" d="M26.081,15.119a1.881,1.881,0,0,0,1.335-.551l4.006-4.006a1.888,1.888,0,0,0-2.67-2.67L24.746,11.9a1.886,1.886,0,0,0,1.335,3.222Z" transform="translate(12.077 -0.432)" fill="rgba(255,212,82,0.75)"/>
    <path id="Path_872" data-name="Path 872" d="M10.562,7.892a1.888,1.888,0,0,0-2.67,2.67L11.9,14.568a1.888,1.888,0,0,0,2.67-2.67Z" transform="translate(-0.432 -0.432)" fill="rgba(255,212,82,0.75)"/>
    <path id="Path_873" data-name="Path 873" d="M27.416,24.746a1.888,1.888,0,1,0-2.67,2.67l4.006,4.006a1.888,1.888,0,0,0,2.67-2.67Z" transform="translate(12.077 12.077)" fill="rgba(255,212,82,0.75)"/>
  </g>
  <path id="Path_874" data-name="Path 874" d="M23.01,11.25A11.76,11.76,0,1,0,34.77,23.01,11.779,11.779,0,0,0,23.01,11.25Z" transform="translate(2.47 2.47)" fill="rgba(255,212,82,0.75)"/>
</svg>
